<mxfile host="Electron" agent="Mozilla/5.0 (X11; Linux x86_64) AppleWebKit/537.36 (KHTML, like Gecko) draw.io/24.7.17 Chrome/128.0.6613.36 Electron/32.0.1 Safari/537.36" version="24.7.17" pages="6">
  <diagram id="ftDrK8ckkijnZmLJtu5y" name="Build Knowledge Base">
    <mxGraphModel dx="1793" dy="894" grid="1" gridSize="10" guides="1" tooltips="1" connect="1" arrows="1" fold="1" page="1" pageScale="1" pageWidth="850" pageHeight="1100" math="0" shadow="0">
      <root>
        <mxCell id="0" />
        <mxCell id="1" parent="0" />
        <mxCell id="10" value="Extract" style="shape=step;perimeter=stepPerimeter;whiteSpace=wrap;html=1;fixedSize=1;labelBorderColor=none;strokeColor=default;strokeWidth=1;gradientColor=none;" parent="1" vertex="1">
          <mxGeometry x="120" y="400" width="160" height="40" as="geometry" />
        </mxCell>
        <mxCell id="16" style="edgeStyle=none;html=1;entryX=0;entryY=0.5;entryDx=0;entryDy=0;" edge="1" parent="1" source="13" target="14">
          <mxGeometry relative="1" as="geometry" />
        </mxCell>
        <mxCell id="13" value="PDF" style="shape=document;whiteSpace=wrap;html=1;boundedLbl=1;" vertex="1" parent="1">
          <mxGeometry x="40" y="280" width="120" height="80" as="geometry" />
        </mxCell>
        <mxCell id="18" style="edgeStyle=none;html=1;entryX=0;entryY=0.5;entryDx=0;entryDy=0;" edge="1" parent="1" source="14" target="17">
          <mxGeometry relative="1" as="geometry" />
        </mxCell>
        <mxCell id="14" value="Text" style="shape=document;whiteSpace=wrap;html=1;boundedLbl=1;" vertex="1" parent="1">
          <mxGeometry x="240" y="280" width="120" height="80" as="geometry" />
        </mxCell>
        <mxCell id="15" value="Transform" style="shape=step;perimeter=stepPerimeter;whiteSpace=wrap;html=1;fixedSize=1;labelBorderColor=none;strokeColor=default;strokeWidth=1;gradientColor=none;" vertex="1" parent="1">
          <mxGeometry x="320" y="400" width="160" height="40" as="geometry" />
        </mxCell>
        <mxCell id="20" style="edgeStyle=none;html=1;" edge="1" parent="1" source="17" target="19">
          <mxGeometry relative="1" as="geometry" />
        </mxCell>
        <mxCell id="17" value="Embedding" style="shape=document;whiteSpace=wrap;html=1;boundedLbl=1;" vertex="1" parent="1">
          <mxGeometry x="440" y="280" width="120" height="80" as="geometry" />
        </mxCell>
        <mxCell id="19" value="Vector Database" style="shape=cylinder3;whiteSpace=wrap;html=1;boundedLbl=1;backgroundOutline=1;size=15;" vertex="1" parent="1">
          <mxGeometry x="670" y="280" width="60" height="80" as="geometry" />
        </mxCell>
        <mxCell id="21" value="Load" style="shape=step;perimeter=stepPerimeter;whiteSpace=wrap;html=1;fixedSize=1;labelBorderColor=none;strokeColor=default;strokeWidth=1;gradientColor=none;" vertex="1" parent="1">
          <mxGeometry x="520" y="400" width="160" height="40" as="geometry" />
        </mxCell>
      </root>
    </mxGraphModel>
  </diagram>
  <diagram id="Tl_FLCckuHsgoOTsjBd3" name="Zoom Out">
    <mxGraphModel dx="584" dy="773" grid="1" gridSize="10" guides="1" tooltips="1" connect="1" arrows="1" fold="1" page="1" pageScale="1" pageWidth="850" pageHeight="1100" math="0" shadow="0">
      <root>
        <mxCell id="0" />
        <mxCell id="1" parent="0" />
        <mxCell id="zXP7LjiOKHGnI4KBbJqf-1" style="edgeStyle=none;html=1;entryX=0;entryY=0.5;entryDx=0;entryDy=0;" parent="1" source="zXP7LjiOKHGnI4KBbJqf-2" target="zXP7LjiOKHGnI4KBbJqf-5" edge="1">
          <mxGeometry relative="1" as="geometry" />
        </mxCell>
        <mxCell id="zXP7LjiOKHGnI4KBbJqf-2" value="User Query" style="shape=document;whiteSpace=wrap;html=1;boundedLbl=1;" parent="1" vertex="1">
          <mxGeometry x="1000" y="360" width="120" height="80" as="geometry" />
        </mxCell>
        <mxCell id="zXP7LjiOKHGnI4KBbJqf-3" style="edgeStyle=none;html=1;entryX=0;entryY=0.5;entryDx=0;entryDy=0;" parent="1" source="zXP7LjiOKHGnI4KBbJqf-5" target="zXP7LjiOKHGnI4KBbJqf-6" edge="1">
          <mxGeometry relative="1" as="geometry" />
        </mxCell>
        <mxCell id="zXP7LjiOKHGnI4KBbJqf-4" value="Push New Memory" style="edgeStyle=none;html=1;entryX=1;entryY=0.5;entryDx=0;entryDy=0;startArrow=none;startFill=0;endArrow=classic;endFill=1;exitX=0.75;exitY=1;exitDx=0;exitDy=0;" parent="1" source="zXP7LjiOKHGnI4KBbJqf-5" target="zXP7LjiOKHGnI4KBbJqf-8" edge="1">
          <mxGeometry relative="1" as="geometry">
            <mxPoint x="1300" y="480" as="sourcePoint" />
            <Array as="points">
              <mxPoint x="1320" y="520" />
              <mxPoint x="1360" y="520" />
              <mxPoint x="1360" y="560" />
              <mxPoint x="1360" y="600" />
            </Array>
            <mxPoint as="offset" />
          </mxGeometry>
        </mxCell>
        <mxCell id="zXP7LjiOKHGnI4KBbJqf-5" value="Agent" style="whiteSpace=wrap;html=1;aspect=fixed;fillColor=#dae8fc;strokeColor=#6c8ebf;fontStyle=3;fontSize=24;" parent="1" vertex="1">
          <mxGeometry x="1200" y="320" width="160" height="160" as="geometry" />
        </mxCell>
        <mxCell id="zXP7LjiOKHGnI4KBbJqf-6" value="LLM Generated Response" style="shape=document;whiteSpace=wrap;html=1;boundedLbl=1;" parent="1" vertex="1">
          <mxGeometry x="1440" y="360" width="120" height="80" as="geometry" />
        </mxCell>
        <mxCell id="zXP7LjiOKHGnI4KBbJqf-7" value="Get Last N" style="edgeStyle=none;html=1;startArrow=none;startFill=0;exitX=0;exitY=0.5;exitDx=0;exitDy=0;entryX=0.25;entryY=1;entryDx=0;entryDy=0;" parent="1" source="zXP7LjiOKHGnI4KBbJqf-8" target="zXP7LjiOKHGnI4KBbJqf-5" edge="1">
          <mxGeometry relative="1" as="geometry">
            <mxPoint x="1260" y="480" as="targetPoint" />
            <Array as="points">
              <mxPoint x="1200" y="600" />
              <mxPoint x="1200" y="550" />
              <mxPoint x="1200" y="520" />
              <mxPoint x="1240" y="520" />
            </Array>
          </mxGeometry>
        </mxCell>
        <mxCell id="zXP7LjiOKHGnI4KBbJqf-8" value="Short-term Memory" style="whiteSpace=wrap;html=1;aspect=fixed;" parent="1" vertex="1">
          <mxGeometry x="1240" y="560" width="80" height="80" as="geometry" />
        </mxCell>
        <mxCell id="zXP7LjiOKHGnI4KBbJqf-9" value="Get Nearest Documents" style="edgeStyle=none;html=1;entryX=0.5;entryY=0;entryDx=0;entryDy=0;fontSize=11;startArrow=none;startFill=0;endArrow=classic;endFill=1;" parent="1" source="zXP7LjiOKHGnI4KBbJqf-10" target="zXP7LjiOKHGnI4KBbJqf-5" edge="1">
          <mxGeometry relative="1" as="geometry" />
        </mxCell>
        <mxCell id="zXP7LjiOKHGnI4KBbJqf-10" value="Vector Database" style="shape=cylinder3;whiteSpace=wrap;html=1;boundedLbl=1;backgroundOutline=1;size=15;" parent="1" vertex="1">
          <mxGeometry x="1250" y="160" width="60" height="80" as="geometry" />
        </mxCell>
        <mxCell id="udGxnBvv0f0_agzExPgc-1" value="Prepare Context" style="shape=step;perimeter=stepPerimeter;whiteSpace=wrap;html=1;fixedSize=1;labelBorderColor=none;strokeColor=#6c8ebf;strokeWidth=1;fillColor=#dae8fc;gradientColor=#9999FF;gradientDirection=east;" parent="1" vertex="1">
          <mxGeometry x="960" y="680" width="160" height="40" as="geometry" />
        </mxCell>
        <mxCell id="udGxnBvv0f0_agzExPgc-2" value="Pre-Generation Filter" style="shape=step;perimeter=stepPerimeter;whiteSpace=wrap;html=1;fixedSize=1;labelBorderColor=none;strokeColor=#6c8ebf;strokeWidth=1;fillColor=#dae8fc;gradientColor=#9999FF;gradientDirection=east;" parent="1" vertex="1">
          <mxGeometry x="1120" y="720" width="160" height="40" as="geometry" />
        </mxCell>
        <mxCell id="udGxnBvv0f0_agzExPgc-3" value="LLM Generation" style="shape=step;perimeter=stepPerimeter;whiteSpace=wrap;html=1;fixedSize=1;labelBorderColor=none;strokeColor=#6c8ebf;strokeWidth=1;fillColor=#dae8fc;gradientColor=#9999FF;gradientDirection=east;" parent="1" vertex="1">
          <mxGeometry x="1280" y="760" width="160" height="40" as="geometry" />
        </mxCell>
        <mxCell id="udGxnBvv0f0_agzExPgc-4" value="Post Generation Filter" style="shape=step;perimeter=stepPerimeter;whiteSpace=wrap;html=1;fixedSize=1;labelBorderColor=none;strokeColor=#6c8ebf;strokeWidth=1;fillColor=#dae8fc;gradientColor=#9999FF;gradientDirection=east;" parent="1" vertex="1">
          <mxGeometry x="1440" y="800" width="160" height="40" as="geometry" />
        </mxCell>
      </root>
    </mxGraphModel>
  </diagram>
  <diagram id="gZYmNw00ZZp-j6vB_7p0" name="Prepare Context">
    <mxGraphModel dx="1687" dy="909" grid="1" gridSize="10" guides="1" tooltips="1" connect="1" arrows="1" fold="1" page="1" pageScale="1" pageWidth="850" pageHeight="1100" math="0" shadow="0">
      <root>
        <mxCell id="0" />
        <mxCell id="1" parent="0" />
        <mxCell id="qq01U3eNU0C7WiF9f5FY-1" style="edgeStyle=none;html=1;" edge="1" parent="1" source="qq01U3eNU0C7WiF9f5FY-2" target="qq01U3eNU0C7WiF9f5FY-12">
          <mxGeometry relative="1" as="geometry" />
        </mxCell>
        <mxCell id="qq01U3eNU0C7WiF9f5FY-2" value="Short-term Memory" style="whiteSpace=wrap;html=1;aspect=fixed;" vertex="1" parent="1">
          <mxGeometry x="60" y="120" width="80" height="80" as="geometry" />
        </mxCell>
        <mxCell id="qq01U3eNU0C7WiF9f5FY-3" style="edgeStyle=none;html=1;entryX=0.5;entryY=0;entryDx=0;entryDy=0;entryPerimeter=0;" edge="1" parent="1" source="qq01U3eNU0C7WiF9f5FY-4" target="qq01U3eNU0C7WiF9f5FY-8">
          <mxGeometry relative="1" as="geometry">
            <Array as="points">
              <mxPoint x="280" y="280" />
            </Array>
          </mxGeometry>
        </mxCell>
        <mxCell id="qq01U3eNU0C7WiF9f5FY-4" value="Vector Database" style="shape=cylinder3;whiteSpace=wrap;html=1;boundedLbl=1;backgroundOutline=1;size=15;" vertex="1" parent="1">
          <mxGeometry x="70" y="240" width="60" height="80" as="geometry" />
        </mxCell>
        <mxCell id="qq01U3eNU0C7WiF9f5FY-5" style="edgeStyle=none;html=1;entryX=0.005;entryY=0.542;entryDx=0;entryDy=0;entryPerimeter=0;" edge="1" parent="1" source="qq01U3eNU0C7WiF9f5FY-6" target="qq01U3eNU0C7WiF9f5FY-8">
          <mxGeometry relative="1" as="geometry" />
        </mxCell>
        <mxCell id="qq01U3eNU0C7WiF9f5FY-6" value="User Query" style="shape=document;whiteSpace=wrap;html=1;boundedLbl=1;" vertex="1" parent="1">
          <mxGeometry x="40" y="360" width="120" height="80" as="geometry" />
        </mxCell>
        <mxCell id="qq01U3eNU0C7WiF9f5FY-7" style="edgeStyle=none;html=1;entryX=0;entryY=0.5;entryDx=0;entryDy=0;exitX=0.99;exitY=0.553;exitDx=0;exitDy=0;exitPerimeter=0;" edge="1" parent="1" source="qq01U3eNU0C7WiF9f5FY-8" target="qq01U3eNU0C7WiF9f5FY-10">
          <mxGeometry relative="1" as="geometry" />
        </mxCell>
        <mxCell id="qq01U3eNU0C7WiF9f5FY-8" value="Semantic Search" style="sketch=0;aspect=fixed;pointerEvents=1;shadow=0;dashed=0;html=1;strokeColor=none;labelPosition=center;verticalLabelPosition=bottom;verticalAlign=top;align=center;fillColor=#00188D;shape=mxgraph.mscae.enterprise.filter" vertex="1" parent="1">
          <mxGeometry x="240" y="360" width="80" height="72" as="geometry" />
        </mxCell>
        <mxCell id="qq01U3eNU0C7WiF9f5FY-9" style="edgeStyle=none;html=1;exitX=1;exitY=0.5;exitDx=0;exitDy=0;" edge="1" parent="1" source="qq01U3eNU0C7WiF9f5FY-10">
          <mxGeometry relative="1" as="geometry">
            <mxPoint x="680" y="280" as="targetPoint" />
            <Array as="points">
              <mxPoint x="600" y="400" />
              <mxPoint x="600" y="280" />
            </Array>
          </mxGeometry>
        </mxCell>
        <mxCell id="qq01U3eNU0C7WiF9f5FY-10" value="Most Relevant Chunks" style="shape=document;whiteSpace=wrap;html=1;boundedLbl=1;" vertex="1" parent="1">
          <mxGeometry x="400" y="360" width="120" height="80" as="geometry" />
        </mxCell>
        <mxCell id="qq01U3eNU0C7WiF9f5FY-11" style="edgeStyle=none;html=1;entryX=0;entryY=0.5;entryDx=0;entryDy=0;exitX=1;exitY=0.5;exitDx=0;exitDy=0;" edge="1" parent="1" source="qq01U3eNU0C7WiF9f5FY-12" target="qq01U3eNU0C7WiF9f5FY-13">
          <mxGeometry relative="1" as="geometry">
            <Array as="points">
              <mxPoint x="600" y="160" />
              <mxPoint x="600" y="280" />
            </Array>
          </mxGeometry>
        </mxCell>
        <mxCell id="qq01U3eNU0C7WiF9f5FY-12" value="Most Recent Chunks" style="shape=document;whiteSpace=wrap;html=1;boundedLbl=1;" vertex="1" parent="1">
          <mxGeometry x="400" y="120" width="120" height="80" as="geometry" />
        </mxCell>
        <mxCell id="qq01U3eNU0C7WiF9f5FY-13" value="Context Chunks" style="shape=document;whiteSpace=wrap;html=1;boundedLbl=1;" vertex="1" parent="1">
          <mxGeometry x="680" y="240" width="120" height="80" as="geometry" />
        </mxCell>
        <mxCell id="qq01U3eNU0C7WiF9f5FY-14" value="Prepare Context" style="shape=step;perimeter=stepPerimeter;whiteSpace=wrap;html=1;fixedSize=1;labelBorderColor=none;strokeColor=default;strokeWidth=1;gradientColor=#9999FF;gradientDirection=east;fontStyle=1;fontSize=32;" vertex="1" parent="1">
          <mxGeometry x="40" y="520" width="760" height="40" as="geometry" />
        </mxCell>
        <mxCell id="qq01U3eNU0C7WiF9f5FY-15" value="" style="endArrow=none;dashed=1;html=1;dashPattern=1 3;strokeWidth=2;fontSize=11;" edge="1" parent="1">
          <mxGeometry width="50" height="50" relative="1" as="geometry">
            <mxPoint x="200" y="480" as="sourcePoint" />
            <mxPoint x="200" y="80" as="targetPoint" />
          </mxGeometry>
        </mxCell>
        <mxCell id="qq01U3eNU0C7WiF9f5FY-16" value="" style="endArrow=none;dashed=1;html=1;dashPattern=1 3;strokeWidth=2;fontSize=11;" edge="1" parent="1">
          <mxGeometry width="50" height="50" relative="1" as="geometry">
            <mxPoint x="640" y="480.0000000000002" as="sourcePoint" />
            <mxPoint x="640" y="80" as="targetPoint" />
          </mxGeometry>
        </mxCell>
        <mxCell id="qq01U3eNU0C7WiF9f5FY-17" value="Input" style="text;html=1;strokeColor=none;fillColor=none;align=center;verticalAlign=middle;whiteSpace=wrap;rounded=0;fontSize=32;fontStyle=5" vertex="1" parent="1">
          <mxGeometry x="40" y="40" width="160" height="40" as="geometry" />
        </mxCell>
        <mxCell id="qq01U3eNU0C7WiF9f5FY-18" value="Output" style="text;html=1;strokeColor=none;fillColor=none;align=center;verticalAlign=middle;whiteSpace=wrap;rounded=0;fontSize=32;fontStyle=5" vertex="1" parent="1">
          <mxGeometry x="640" y="40" width="160" height="40" as="geometry" />
        </mxCell>
      </root>
    </mxGraphModel>
  </diagram>
  <diagram id="WZeanr9GYMaqTfxLG5Lj" name="Pre-Generation Filter">
    <mxGraphModel dx="584" dy="773" grid="1" gridSize="10" guides="1" tooltips="1" connect="1" arrows="1" fold="1" page="1" pageScale="1" pageWidth="850" pageHeight="1100" math="0" shadow="0">
      <root>
        <mxCell id="0" />
        <mxCell id="1" parent="0" />
        <mxCell id="l-vG1ulXbmm1FNysbZPo-1" style="edgeStyle=orthogonalEdgeStyle;html=1;entryX=0;entryY=0.5;entryDx=0;entryDy=0;fontSize=32;startArrow=none;startFill=0;endArrow=classic;endFill=1;" edge="1" parent="1" source="l-vG1ulXbmm1FNysbZPo-2" target="l-vG1ulXbmm1FNysbZPo-8">
          <mxGeometry relative="1" as="geometry" />
        </mxCell>
        <mxCell id="l-vG1ulXbmm1FNysbZPo-2" value="&lt;font style=&quot;font-size: 24px;&quot;&gt;Filter&lt;br&gt;(LLM)&lt;/font&gt;" style="whiteSpace=wrap;html=1;aspect=fixed;fillColor=#dae8fc;strokeColor=#6c8ebf;fontStyle=3" vertex="1" parent="1">
          <mxGeometry x="1180" y="200" width="160" height="160" as="geometry" />
        </mxCell>
        <mxCell id="l-vG1ulXbmm1FNysbZPo-3" style="edgeStyle=orthogonalEdgeStyle;html=1;fontSize=32;startArrow=none;startFill=0;endArrow=classic;endFill=1;entryX=0;entryY=0.25;entryDx=0;entryDy=0;" edge="1" parent="1" source="l-vG1ulXbmm1FNysbZPo-4" target="l-vG1ulXbmm1FNysbZPo-2">
          <mxGeometry relative="1" as="geometry">
            <mxPoint x="1160" y="240" as="targetPoint" />
          </mxGeometry>
        </mxCell>
        <mxCell id="l-vG1ulXbmm1FNysbZPo-4" value="Context Chunks" style="shape=document;whiteSpace=wrap;html=1;boundedLbl=1;" vertex="1" parent="1">
          <mxGeometry x="880" y="200" width="120" height="80" as="geometry" />
        </mxCell>
        <mxCell id="l-vG1ulXbmm1FNysbZPo-5" style="edgeStyle=orthogonalEdgeStyle;html=1;fontSize=32;startArrow=none;startFill=0;endArrow=classic;endFill=1;entryX=0;entryY=0.75;entryDx=0;entryDy=0;" edge="1" parent="1" source="l-vG1ulXbmm1FNysbZPo-6" target="l-vG1ulXbmm1FNysbZPo-2">
          <mxGeometry relative="1" as="geometry">
            <mxPoint x="1160" y="320" as="targetPoint" />
          </mxGeometry>
        </mxCell>
        <mxCell id="l-vG1ulXbmm1FNysbZPo-6" value="User Query" style="shape=document;whiteSpace=wrap;html=1;boundedLbl=1;" vertex="1" parent="1">
          <mxGeometry x="880" y="280" width="120" height="80" as="geometry" />
        </mxCell>
        <mxCell id="l-vG1ulXbmm1FNysbZPo-7" value="Pre-Generation Filter" style="shape=step;perimeter=stepPerimeter;whiteSpace=wrap;html=1;fixedSize=1;labelBorderColor=none;strokeColor=default;strokeWidth=1;gradientColor=#9999FF;gradientDirection=east;fontStyle=1;fontSize=32;" vertex="1" parent="1">
          <mxGeometry x="880" y="520" width="760" height="40" as="geometry" />
        </mxCell>
        <mxCell id="l-vG1ulXbmm1FNysbZPo-8" value="Filtered Context" style="shape=document;whiteSpace=wrap;html=1;boundedLbl=1;" vertex="1" parent="1">
          <mxGeometry x="1520" y="240" width="120" height="80" as="geometry" />
        </mxCell>
        <mxCell id="l-vG1ulXbmm1FNysbZPo-9" value="" style="endArrow=none;dashed=1;html=1;dashPattern=1 3;strokeWidth=2;fontSize=11;" edge="1" parent="1">
          <mxGeometry width="50" height="50" relative="1" as="geometry">
            <mxPoint x="1080" y="480" as="sourcePoint" />
            <mxPoint x="1080" y="80" as="targetPoint" />
          </mxGeometry>
        </mxCell>
        <mxCell id="l-vG1ulXbmm1FNysbZPo-10" value="" style="endArrow=none;dashed=1;html=1;dashPattern=1 3;strokeWidth=2;fontSize=11;" edge="1" parent="1">
          <mxGeometry width="50" height="50" relative="1" as="geometry">
            <mxPoint x="1440" y="480" as="sourcePoint" />
            <mxPoint x="1440" y="80" as="targetPoint" />
          </mxGeometry>
        </mxCell>
        <mxCell id="l-vG1ulXbmm1FNysbZPo-11" value="Input" style="text;html=1;strokeColor=none;fillColor=none;align=center;verticalAlign=middle;whiteSpace=wrap;rounded=0;fontSize=32;fontStyle=5" vertex="1" parent="1">
          <mxGeometry x="880" y="40" width="160" height="40" as="geometry" />
        </mxCell>
        <mxCell id="l-vG1ulXbmm1FNysbZPo-12" value="Output" style="text;html=1;strokeColor=none;fillColor=none;align=center;verticalAlign=middle;whiteSpace=wrap;rounded=0;fontSize=32;fontStyle=5" vertex="1" parent="1">
          <mxGeometry x="1480" y="40" width="160" height="40" as="geometry" />
        </mxCell>
      </root>
    </mxGraphModel>
  </diagram>
  <diagram id="AdHWX_m0DBQojSeXbKTJ" name="LLM Generation">
    <mxGraphModel dx="-266" dy="773" grid="1" gridSize="10" guides="1" tooltips="1" connect="1" arrows="1" fold="1" page="1" pageScale="1" pageWidth="850" pageHeight="1100" math="0" shadow="0">
      <root>
        <mxCell id="0" />
        <mxCell id="1" parent="0" />
        <mxCell id="MvCtWWwMYyqKugj5xSyi-1" value="LLM Generation" style="shape=step;perimeter=stepPerimeter;whiteSpace=wrap;html=1;fixedSize=1;labelBorderColor=none;strokeColor=default;strokeWidth=1;gradientColor=#9999FF;gradientDirection=east;fontStyle=1;fontSize=32;" vertex="1" parent="1">
          <mxGeometry x="1760" y="520" width="760" height="40" as="geometry" />
        </mxCell>
        <mxCell id="MvCtWWwMYyqKugj5xSyi-2" style="edgeStyle=orthogonalEdgeStyle;html=1;entryX=0;entryY=0.5;entryDx=0;entryDy=0;fontSize=32;startArrow=none;startFill=0;endArrow=classic;endFill=1;" edge="1" parent="1" source="MvCtWWwMYyqKugj5xSyi-3" target="MvCtWWwMYyqKugj5xSyi-8">
          <mxGeometry relative="1" as="geometry" />
        </mxCell>
        <mxCell id="MvCtWWwMYyqKugj5xSyi-3" value="&lt;font style=&quot;font-size: 24px;&quot;&gt;Core&lt;br&gt;(LLM)&lt;/font&gt;" style="whiteSpace=wrap;html=1;aspect=fixed;fillColor=#dae8fc;strokeColor=#6c8ebf;fontStyle=3" vertex="1" parent="1">
          <mxGeometry x="2060" y="200" width="160" height="160" as="geometry" />
        </mxCell>
        <mxCell id="MvCtWWwMYyqKugj5xSyi-4" style="edgeStyle=orthogonalEdgeStyle;html=1;fontSize=32;startArrow=none;startFill=0;endArrow=classic;endFill=1;entryX=0;entryY=0.25;entryDx=0;entryDy=0;" edge="1" parent="1" source="MvCtWWwMYyqKugj5xSyi-5" target="MvCtWWwMYyqKugj5xSyi-3">
          <mxGeometry relative="1" as="geometry">
            <mxPoint x="2040" y="240" as="targetPoint" />
          </mxGeometry>
        </mxCell>
        <mxCell id="MvCtWWwMYyqKugj5xSyi-5" value="Context Chunks" style="shape=document;whiteSpace=wrap;html=1;boundedLbl=1;" vertex="1" parent="1">
          <mxGeometry x="1760" y="200" width="120" height="80" as="geometry" />
        </mxCell>
        <mxCell id="MvCtWWwMYyqKugj5xSyi-6" style="edgeStyle=orthogonalEdgeStyle;html=1;fontSize=32;startArrow=none;startFill=0;endArrow=classic;endFill=1;entryX=0;entryY=0.75;entryDx=0;entryDy=0;" edge="1" parent="1" source="MvCtWWwMYyqKugj5xSyi-7" target="MvCtWWwMYyqKugj5xSyi-3">
          <mxGeometry relative="1" as="geometry">
            <mxPoint x="2040" y="320" as="targetPoint" />
          </mxGeometry>
        </mxCell>
        <mxCell id="MvCtWWwMYyqKugj5xSyi-7" value="User Query" style="shape=document;whiteSpace=wrap;html=1;boundedLbl=1;" vertex="1" parent="1">
          <mxGeometry x="1760" y="280" width="120" height="80" as="geometry" />
        </mxCell>
        <mxCell id="MvCtWWwMYyqKugj5xSyi-8" value="LLM Generation Responses" style="shape=document;whiteSpace=wrap;html=1;boundedLbl=1;" vertex="1" parent="1">
          <mxGeometry x="2400" y="240" width="120" height="80" as="geometry" />
        </mxCell>
        <mxCell id="MvCtWWwMYyqKugj5xSyi-9" value="" style="endArrow=none;dashed=1;html=1;dashPattern=1 3;strokeWidth=2;fontSize=11;" edge="1" parent="1">
          <mxGeometry width="50" height="50" relative="1" as="geometry">
            <mxPoint x="1960" y="480" as="sourcePoint" />
            <mxPoint x="1960" y="80" as="targetPoint" />
          </mxGeometry>
        </mxCell>
        <mxCell id="MvCtWWwMYyqKugj5xSyi-10" value="" style="endArrow=none;dashed=1;html=1;dashPattern=1 3;strokeWidth=2;fontSize=11;" edge="1" parent="1">
          <mxGeometry width="50" height="50" relative="1" as="geometry">
            <mxPoint x="2320" y="480" as="sourcePoint" />
            <mxPoint x="2320" y="80" as="targetPoint" />
          </mxGeometry>
        </mxCell>
        <mxCell id="MvCtWWwMYyqKugj5xSyi-11" value="Input" style="text;html=1;strokeColor=none;fillColor=none;align=center;verticalAlign=middle;whiteSpace=wrap;rounded=0;fontSize=32;fontStyle=5" vertex="1" parent="1">
          <mxGeometry x="1760" y="40" width="160" height="40" as="geometry" />
        </mxCell>
        <mxCell id="MvCtWWwMYyqKugj5xSyi-12" value="Output" style="text;html=1;strokeColor=none;fillColor=none;align=center;verticalAlign=middle;whiteSpace=wrap;rounded=0;fontSize=32;fontStyle=5" vertex="1" parent="1">
          <mxGeometry x="2360" y="40" width="160" height="40" as="geometry" />
        </mxCell>
        <mxCell id="MvCtWWwMYyqKugj5xSyi-13" style="edgeStyle=orthogonalEdgeStyle;html=1;entryX=0.5;entryY=1;entryDx=0;entryDy=0;fontSize=24;startArrow=none;startFill=0;endArrow=classic;endFill=1;" edge="1" parent="1" source="MvCtWWwMYyqKugj5xSyi-14" target="MvCtWWwMYyqKugj5xSyi-3">
          <mxGeometry relative="1" as="geometry" />
        </mxCell>
        <mxCell id="MvCtWWwMYyqKugj5xSyi-14" value="" style="sketch=0;aspect=fixed;pointerEvents=1;shadow=0;dashed=0;html=1;strokeColor=none;labelPosition=center;verticalLabelPosition=bottom;verticalAlign=top;align=center;fillColor=#00188D;shape=mxgraph.mscae.enterprise.tool;fontSize=24;" vertex="1" parent="1">
          <mxGeometry x="2101.11" y="410" width="77.78" height="70" as="geometry" />
        </mxCell>
      </root>
    </mxGraphModel>
  </diagram>
  <diagram id="pqKmTWmJT1WiPP9axXuR" name="Post-Generation Filter">
    <mxGraphModel dx="-501" dy="1104" grid="1" gridSize="10" guides="1" tooltips="1" connect="1" arrows="1" fold="1" page="1" pageScale="1" pageWidth="850" pageHeight="1100" math="0" shadow="0">
      <root>
        <mxCell id="0" />
        <mxCell id="1" parent="0" />
        <mxCell id="eYAiEEm345uS7mn-0q9v-17" value="Post-Generation Filter" style="shape=step;perimeter=stepPerimeter;whiteSpace=wrap;html=1;fixedSize=1;labelBorderColor=none;strokeColor=default;strokeWidth=1;gradientColor=#9999FF;gradientDirection=east;fontStyle=1;fontSize=32;" parent="1" vertex="1">
          <mxGeometry x="2600" y="520" width="760" height="40" as="geometry" />
        </mxCell>
        <mxCell id="eYAiEEm345uS7mn-0q9v-18" style="edgeStyle=orthogonalEdgeStyle;html=1;entryX=0;entryY=0.5;entryDx=0;entryDy=0;fontSize=32;startArrow=none;startFill=0;endArrow=classic;endFill=1;" parent="1" source="eYAiEEm345uS7mn-0q9v-19" target="eYAiEEm345uS7mn-0q9v-24" edge="1">
          <mxGeometry relative="1" as="geometry" />
        </mxCell>
        <mxCell id="eYAiEEm345uS7mn-0q9v-19" value="&lt;span style=&quot;font-size: 24px;&quot;&gt;Dream Catcher (LLM)&lt;/span&gt;" style="whiteSpace=wrap;html=1;aspect=fixed;fillColor=#dae8fc;strokeColor=#6c8ebf;fontStyle=3" parent="1" vertex="1">
          <mxGeometry x="2900" y="200" width="160" height="160" as="geometry" />
        </mxCell>
        <mxCell id="eYAiEEm345uS7mn-0q9v-20" style="edgeStyle=orthogonalEdgeStyle;html=1;fontSize=32;startArrow=none;startFill=0;endArrow=classic;endFill=1;entryX=0;entryY=0.25;entryDx=0;entryDy=0;" parent="1" source="eYAiEEm345uS7mn-0q9v-21" target="eYAiEEm345uS7mn-0q9v-19" edge="1">
          <mxGeometry relative="1" as="geometry">
            <mxPoint x="2880" y="240" as="targetPoint" />
          </mxGeometry>
        </mxCell>
        <mxCell id="eYAiEEm345uS7mn-0q9v-21" value="Context Chunks" style="shape=document;whiteSpace=wrap;html=1;boundedLbl=1;" parent="1" vertex="1">
          <mxGeometry x="2600" y="200" width="120" height="80" as="geometry" />
        </mxCell>
        <mxCell id="eYAiEEm345uS7mn-0q9v-22" style="edgeStyle=orthogonalEdgeStyle;html=1;fontSize=32;startArrow=none;startFill=0;endArrow=classic;endFill=1;entryX=0;entryY=0.75;entryDx=0;entryDy=0;" parent="1" source="eYAiEEm345uS7mn-0q9v-23" target="eYAiEEm345uS7mn-0q9v-19" edge="1">
          <mxGeometry relative="1" as="geometry">
            <mxPoint x="2880" y="320" as="targetPoint" />
          </mxGeometry>
        </mxCell>
        <mxCell id="eYAiEEm345uS7mn-0q9v-23" value="LLM Generation Responses&amp;nbsp;" style="shape=document;whiteSpace=wrap;html=1;boundedLbl=1;" parent="1" vertex="1">
          <mxGeometry x="2600" y="280" width="120" height="80" as="geometry" />
        </mxCell>
        <mxCell id="eYAiEEm345uS7mn-0q9v-24" value="Validated Responses" style="shape=document;whiteSpace=wrap;html=1;boundedLbl=1;" parent="1" vertex="1">
          <mxGeometry x="3240" y="240" width="120" height="80" as="geometry" />
        </mxCell>
        <mxCell id="eYAiEEm345uS7mn-0q9v-25" value="" style="endArrow=none;dashed=1;html=1;dashPattern=1 3;strokeWidth=2;fontSize=11;" parent="1" edge="1">
          <mxGeometry width="50" height="50" relative="1" as="geometry">
            <mxPoint x="2800" y="480" as="sourcePoint" />
            <mxPoint x="2800" y="80" as="targetPoint" />
          </mxGeometry>
        </mxCell>
        <mxCell id="eYAiEEm345uS7mn-0q9v-26" value="" style="endArrow=none;dashed=1;html=1;dashPattern=1 3;strokeWidth=2;fontSize=11;" parent="1" edge="1">
          <mxGeometry width="50" height="50" relative="1" as="geometry">
            <mxPoint x="3160" y="480" as="sourcePoint" />
            <mxPoint x="3160" y="80" as="targetPoint" />
          </mxGeometry>
        </mxCell>
        <mxCell id="eYAiEEm345uS7mn-0q9v-27" value="Input" style="text;html=1;strokeColor=none;fillColor=none;align=center;verticalAlign=middle;whiteSpace=wrap;rounded=0;fontSize=32;fontStyle=5" parent="1" vertex="1">
          <mxGeometry x="2600" y="40" width="160" height="40" as="geometry" />
        </mxCell>
        <mxCell id="eYAiEEm345uS7mn-0q9v-28" value="Output" style="text;html=1;strokeColor=none;fillColor=none;align=center;verticalAlign=middle;whiteSpace=wrap;rounded=0;fontSize=32;fontStyle=5" parent="1" vertex="1">
          <mxGeometry x="3200" y="40" width="160" height="40" as="geometry" />
        </mxCell>
      </root>
    </mxGraphModel>
  </diagram>
</mxfile>
